<?xml version="1.0" encoding="UTF-8"?>
<svg width="36px" height="17px" viewBox="0 0 36 17" version="1.1" xmlns="http://www.w3.org/2000/svg" xmlns:xlink="http://www.w3.org/1999/xlink">
    <!-- Generator: Sketch 57.1 (83088) - https://sketch.com -->
    <title>Group 8</title>
    <desc>Created with Sketch.</desc>
    <g id="Page-3" stroke="none" stroke-width="1" fill="none" fill-rule="evenodd">
        <g id="Group-8" fill-rule="nonzero">
            <path d="M8.4,16.8 L27.6,16.8 C32.232,16.8 36,13.032 36,8.4 C36,3.768 32.232,5.32907052e-15 27.6,5.32907052e-15 L8.4,5.32907052e-15 C3.768,5.32907052e-15 0,3.768 0,8.4 C0,13.032 3.768,16.8 8.4,16.8 Z" id="Path" fill="#AFB0B3"></path>
            <path d="M8.6,2.4 C11.9084,2.4 14.6,5.0916 14.6,8.4 C14.6,11.7084 11.9084,14.4 8.6,14.4 C5.2916,14.4 2.6,11.7084 2.6,8.4 C2.6,5.0916 5.2916,2.4 8.6,2.4 Z" id="Path" fill="#FFFFFF"></path>
        </g>
    </g>
</svg>