<?xml version="1.0" encoding="UTF-8"?>
<svg width="24px" height="24px" viewBox="0 0 24 24" version="1.1" xmlns="http://www.w3.org/2000/svg" xmlns:xlink="http://www.w3.org/1999/xlink">
    <!-- Generator: Sketch 57.1 (83088) - https://sketch.com -->
    <title>Group</title>
    <desc>Created with Sketch.</desc>
    <g id="Page-1" stroke="none" stroke-width="1" fill="none" fill-rule="evenodd">
        <g id="Group" fill-rule="nonzero">
            <g id="Group-4" fill="#FFFFFF">
                <rect id="Rectangle-Copy-2" x="0" y="0" width="24" height="24"></rect>
            </g>
            <g id="add-user" transform="translate(4.666667, 4.666667)" fill="#000000">
                <path d="M10.6270231,7.3593724 C10.342562,7.22539583 10.0523185,7.10998177 9.75698655,7.01330208 C10.7134688,6.30196875 11.3333333,5.16928385 11.3333333,3.89583333 C11.3333333,1.74768229 9.56946595,0 7.40135668,0 C5.23324741,0 3.46938003,1.74768229 3.46938003,3.89583333 C3.46938003,5.1706875 4.09063234,6.30448958 5.04890709,7.01567969 C4.17091983,7.30208073 3.34708399,7.74772396 2.62602886,8.33536458 C1.30384389,9.4129349 0.384541962,10.9159531 0.0375161108,12.5675859 C-0.0712493022,13.0851016 0.0590552476,13.6166536 0.394950135,14.025888 C0.729197063,14.4331172 1.2248285,14.6666667 1.75472018,14.6666667 L8.87584793,14.6666667 C9.19520538,14.6666667 9.45407979,14.4101719 9.45407979,14.09375 C9.45407979,13.7773281 9.19520538,13.5208333 8.87584793,13.5208333 L1.75472018,13.5208333 C1.507873,13.5208333 1.35894938,13.3843073 1.2921636,13.3029531 C1.17683526,13.1624453 1.13219576,12.9795417 1.16969409,12.8011068 C1.76975421,9.94526042 4.31212405,7.85909896 7.24806741,7.78874479 C7.29892291,7.79069271 7.35000969,7.79166667 7.40135668,7.79166667 C7.45319517,7.79166667 7.50480236,7.79066406 7.55614935,7.7886875 C8.45587812,7.80959896 9.3212021,8.01304167 10.1305532,8.39426042 C10.4190042,8.53004167 10.7639195,8.40855469 10.9010183,8.12275521 C11.0381171,7.83698437 10.9154741,7.49521094 10.6270231,7.3593724 Z M7.54238743,6.6423099 C7.49546392,6.64147917 7.44845367,6.64104948 7.40135668,6.64104948 C7.35469337,6.64104948 7.30803006,6.64150781 7.26142457,6.64236719 C5.79575136,6.56992188 4.62584375,5.36570833 4.62584375,3.89583333 C4.62584375,2.37946615 5.8709215,1.14583333 7.40135668,1.14583333 C8.93179186,1.14583333 10.1768696,2.37946615 10.1768696,3.89583333 C10.1768696,5.36533594 9.00754023,6.56932031 7.54238743,6.6423099 Z" id="Shape"></path>
                <path d="M14.0350877,11.0350877 L12.2982456,11.0350877 L12.2982456,9.29824561 C12.2982456,8.94942456 12.0154877,8.66666667 11.6666667,8.66666667 C11.3178456,8.66666667 11.0350877,8.94942456 11.0350877,9.29824561 L11.0350877,11.0350877 L9.29824561,11.0350877 C8.94942456,11.0350877 8.66666667,11.3178456 8.66666667,11.6666667 C8.66666667,12.0154877 8.94942456,12.2982456 9.29824561,12.2982456 L11.0350877,12.2982456 L11.0350877,14.0350877 C11.0350877,14.3839088 11.3178456,14.6666667 11.6666667,14.6666667 C12.0154877,14.6666667 12.2982456,14.3839088 12.2982456,14.0350877 L12.2982456,12.2982456 L14.0350877,12.2982456 C14.3839088,12.2982456 14.6666667,12.0154877 14.6666667,11.6666667 C14.6666667,11.3178456 14.3839088,11.0350877 14.0350877,11.0350877 Z" id="Path"></path>
            </g>
        </g>
    </g>
</svg>