<?xml version="1.0" encoding="UTF-8"?>
<svg width="38px" height="38px" viewBox="0 0 38 38" version="1.1" xmlns="http://www.w3.org/2000/svg" xmlns:xlink="http://www.w3.org/1999/xlink">
    <!-- Generator: Sketch 57.1 (83088) - https://sketch.com -->
    <title>Group 5</title>
    <desc>Created with Sketch.</desc>
    <g id="Page-3" stroke="none" stroke-width="1" fill="none" fill-rule="evenodd">
        <g id="Group-5" transform="translate(1.000000, 1.000000)">
            <rect id="Rectangle-Copy-2" stroke="#F0F2F5" fill="#FFFFFF" x="0" y="0" width="36" height="36"></rect>
            <g id="ellipse-outline-shape-variant" transform="translate(4.000000, 8.000000)" fill="#000000" fill-rule="nonzero">
                <path d="M14.5,20.2640449 C6.50441516,20.2640449 0,15.7780273 0,10.2643686 C0,4.75006255 6.50441516,0.264044944 14.5,0.264044944 C22.4955848,0.264044944 29,4.74973888 29,10.2640449 C29,15.7786747 22.4955848,20.2640449 14.5,20.2640449 Z M14.5,1.23504443 C7.04776299,1.23504443 0.984920527,5.28540693 0.984920527,10.2643686 C0.984920527,15.242683 7.04776299,19.2933691 14.5,19.2933691 C21.952237,19.2933691 28.0150795,15.242683 28.0150795,10.2643686 C28.0150795,5.2857306 21.952237,1.23504443 14.5,1.23504443 Z" id="Shape"></path>
            </g>
        </g>
    </g>
</svg>