<?xml version="1.0" encoding="UTF-8"?>
<svg width="18px" height="19px" viewBox="0 0 18 19" version="1.1" xmlns="http://www.w3.org/2000/svg" xmlns:xlink="http://www.w3.org/1999/xlink">
    <!-- Generator: Sketch 57.1 (83088) - https://sketch.com -->
    <title>Group 22</title>
    <desc>Created with Sketch.</desc>
    <g id="Page-1" stroke="none" stroke-width="1" fill="none" fill-rule="evenodd">
        <g id="Group-22" transform="translate(-3.000000, -3.000000)">
            <rect id="Rectangle" fill-opacity="0" fill="#FF2121" x="0" y="0" width="24" height="24"></rect>
            <g id="musical-note-(1)" transform="translate(3.000000, 3.000000)" fill="#000000" fill-rule="nonzero">
                <path d="M17.1599443,4.18580396 L17.1599443,0.538218092 C17.1599443,0.366988625 17.0763206,0.203723319 16.9409299,0.104171303 C16.8015571,0.00461928697 16.6223634,-0.0272373581 16.4590981,0.0245296902 L5.59200006,3.4769936 C5.36900355,3.54867105 5.21768448,3.75573925 5.21768448,3.990682 L5.21768448,7.64224995 L5.21768448,7.64623203 L5.21768448,14.6268194 C4.64824695,14.2325934 3.9195262,14.017561 3.15496671,14.017561 C2.34660435,14.017561 1.57806278,14.260468 0.992696929,14.6984968 C0.363528188,15.1723644 0.0170871727,15.8134794 0.0170871727,16.5103435 C0.0170871727,17.2072076 0.363528188,17.8483226 0.992696929,18.3221902 C1.57806278,18.7602191 2.34262226,19.003126 3.15496671,19.003126 C3.96731116,19.003126 4.73187065,18.7602191 5.3172365,18.3221902 C5.94640524,17.8483226 6.29284626,17.2072076 6.29284626,16.5103435 L6.29284626,8.03647593 L16.0847825,4.92248887 L16.0847825,11.1584272 C15.515345,10.7642012 14.7866243,10.5491688 14.0220648,10.5491688 C13.2137024,10.5491688 12.4451608,10.7920757 11.859795,11.2301046 C11.2306262,11.7039722 10.8841852,12.3450872 10.8841852,13.0419513 C10.8841852,13.7388154 11.2306262,14.3799304 11.859795,14.853798 C12.4451608,15.2918269 13.2097203,15.5347338 14.0220648,15.5347338 C14.8344092,15.5347338 15.5989687,15.2918269 16.1843346,14.853798 C16.8135033,14.3799304 17.1599443,13.7388154 17.1599443,13.0419513 L17.1599443,4.18978604 C17.1599443,4.18580396 17.1599443,4.18580396 17.1599443,4.18580396 Z M3.15496671,17.9279642 C2.03600206,17.9279642 1.09224894,17.2788851 1.09224894,16.5103435 C1.09224894,15.741802 2.03600206,15.0927228 3.15496671,15.0927228 C4.27393137,15.0927228 5.21768448,15.741802 5.21768448,16.5103435 C5.21768448,17.2828672 4.27393137,17.9279642 3.15496671,17.9279642 Z M6.29284626,6.90556503 L6.29284626,4.38092591 L16.0847825,1.27092093 L16.0847825,3.79556005 L6.29284626,6.90556503 Z M14.0260469,14.459572 C12.9070822,14.459572 11.9633291,13.8104929 11.9633291,13.0419513 C11.9633291,12.2734097 12.9070822,11.6243306 14.0260469,11.6243306 C15.1450115,11.6243306 16.0887646,12.2734097 16.0887646,13.0419513 C16.0847825,13.8104929 15.1410294,14.459572 14.0260469,14.459572 Z" id="Shape"></path>
            </g>
        </g>
    </g>
</svg>