<?xml version="1.0" encoding="UTF-8"?>
<svg width="24px" height="24px" viewBox="0 0 24 24" version="1.1" xmlns="http://www.w3.org/2000/svg" xmlns:xlink="http://www.w3.org/1999/xlink">
    <!-- Generator: Sketch 59.1 (86144) - https://sketch.com -->
    <title>Artboard</title>
    <desc>Created with Sketch.</desc>
    <defs>
        <path d="M15.7956466,14.5365671 C15.719616,14.1284694 15.3289966,13.8596369 14.9231261,13.9361293 C14.5173305,14.0126218 14.2499524,14.4054211 14.325983,14.8134812 C14.3824266,15.1162561 14.2500646,15.3320138 14.1661842,15.4336905 C14.0824907,15.5350665 13.8964885,15.7051918 13.5912821,15.7051918 L2.2430585,15.7051918 C1.93785202,15.7051918 1.75184989,15.5351041 1.6681564,15.4336905 C1.58427602,15.3320138 1.45191397,15.1162561 1.50835754,14.8134812 C1.72041343,13.6756038 2.14590827,12.9271803 2.55738567,12.2033773 C3.05711689,11.3244091 3.57385594,10.415483 3.57385594,9.01441133 L3.57385594,7.88675803 C3.57385594,5.51616767 5.49005922,3.56138067 7.84644761,3.52698724 L7.98778082,3.52698724 C10.3362073,3.56130549 12.2460186,5.51609249 12.2460186,7.88679561 L12.2460186,9.01444892 C12.2460186,10.2068671 12.6339093,11.0273852 12.9975031,11.7028872 C13.1328182,11.9542787 13.3899916,12.0969644 13.6556128,12.0969644 C13.775789,12.0969644 13.8977221,12.0677582 14.0107961,12.0061883 C14.3739414,11.8085859 14.5089574,11.3523373 14.3124141,10.9872408 C13.950652,10.3150842 13.7412127,9.77678014 13.7412127,9.01444892 L13.7412127,7.88679561 C13.7412127,6.3396177 13.1452657,4.87832937 12.0630816,3.77213907 C11.1356876,2.82412094 9.94487766,2.23251643 8.65755299,2.06923223 L8.65755299,0.970522029 C8.65755299,0.555320083 8.3228538,0.218753161 7.90995598,0.218753161 C7.49705815,0.218753161 7.16235897,0.555320083 7.16235897,0.970522029 L7.16235897,2.07144995 C4.30437036,2.44432731 2.0786993,4.92411209 2.0786993,7.88679561 L2.0786993,9.01444892 C2.0786993,10.0160682 1.71712401,10.652027 1.25937036,11.4571715 C0.808419842,12.250438 0.297250386,13.149516 0.0387313405,14.5365671 C-0.0846595459,15.1987252 0.0899043559,15.875693 0.517679365,16.3939625 C0.945043195,16.9117809 1.57395918,17.2087296 2.2430585,17.2087296 L5.68159357,17.2087296 C5.68159357,18.4523056 6.68770962,19.4640362 7.9243846,19.4640362 C9.16105957,19.4640362 10.1671756,18.4523056 10.1671756,17.2087296 L13.5912821,17.2087296 C14.2603814,17.2087296 14.8892974,16.9117809 15.3166612,16.3939625 C15.7444362,15.8757306 15.9190001,15.1987252 15.7956466,14.5365671 Z M7.9243846,17.9604984 C7.51215961,17.9604984 7.17678759,17.6232549 7.17678759,17.2087296 L8.67198161,17.2087296 C8.67198161,17.6232549 8.33664697,17.9604984 7.9243846,17.9604984 Z" id="path-1"></path>
    </defs>
    <g id="Artboard" stroke="none" stroke-width="1" fill="none" fill-rule="evenodd">
        <g id="Group-12">
            <rect id="Rectangle" fill-opacity="0" fill="#D8D8D8" x="0" y="0" width="24" height="24"></rect>
            <g id="Icon-/-lock" transform="translate(4.000000, 2.000000)">
                <g id="Color-/-Black" transform="translate(0.000000, 0.158605)">
                    <mask id="mask-2" fill="white">
                        <use xlink:href="#path-1"></use>
                    </mask>
                    <use id="Mask" fill="#000000" fill-rule="nonzero" xlink:href="#path-1"></use>
                    <g mask="url(#mask-2)" fill="#222835" id="Rectangle">
                        <g transform="translate(-4.150943, -1.886792)">
                            <rect x="0" y="0" width="23" height="23"></rect>
                        </g>
                    </g>
                </g>
            </g>
        </g>
    </g>
</svg>