<?xml version="1.0" encoding="UTF-8"?>
<svg width="36px" height="17px" viewBox="0 0 36 17" version="1.1" xmlns="http://www.w3.org/2000/svg" xmlns:xlink="http://www.w3.org/1999/xlink">
    <!-- Generator: Sketch 57.1 (83088) - https://sketch.com -->
    <title>Group 7</title>
    <desc>Created with Sketch.</desc>
    <g id="Page-3" stroke="none" stroke-width="1" fill="none" fill-rule="evenodd">
        <g id="Group-7" transform="translate(0.000000, -0.000000)" fill-rule="nonzero">
            <path d="M8.4,16.8 L27.6,16.8 C32.232,16.8 36,13.032 36,8.4 C36,3.768 32.232,5.32907052e-15 27.6,5.32907052e-15 L8.4,5.32907052e-15 C3.768,5.32907052e-15 0,3.768 0,8.4 C0,13.032 3.768,16.8 8.4,16.8 Z" id="Path" fill="#CD3632"></path>
            <path d="M27.6,2.4 C30.9084,2.4 33.6,5.0916 33.6,8.4 C33.6,11.7084 30.9084,14.4 27.6,14.4 C24.2916,14.4 21.6,11.7084 21.6,8.4 C21.6,5.0916 24.2916,2.4 27.6,2.4 Z" id="Path" fill="#FFFFFF"></path>
        </g>
    </g>
</svg>