<?xml version="1.0" encoding="UTF-8"?>
<svg width="19px" height="16px" viewBox="0 0 19 16" version="1.1" xmlns="http://www.w3.org/2000/svg" xmlns:xlink="http://www.w3.org/1999/xlink">
    <!-- Generator: Sketch 58 (84663) - https://sketch.com -->
    <title>Combined Shape</title>
    <desc>Created with Sketch.</desc>
    <g id="WIP" stroke="none" stroke-width="1" fill="none" fill-rule="evenodd">
        <g id="Group-4" transform="translate(-73.000000, -77.000000)" fill="#000000" fill-rule="nonzero">
            <g id="Group-2">
                <g id="Group-5" transform="translate(64.000000, 67.000000)">
                    <g id="Group-17">
                        <g id="001-monitor" transform="translate(9.000000, 10.000000)">
                            <path d="M15.7090909,0.00221818182 C17.3131636,0.00221818182 18.6181818,1.30723636 18.6181818,2.91130909 L18.6181818,2.91130909 L18.6181818,6.54767273 C18.6181818,6.94934545 18.2925818,7.27494545 17.8909091,7.27494545 C17.4892364,7.27494545 17.1636364,6.94934545 17.1636364,6.54767273 L17.1636364,6.54767273 L17.1636364,2.91130909 C17.1636364,2.10927273 16.5111273,1.45676364 15.7090909,1.45676364 L15.7090909,1.45676364 L2.90909091,1.45676364 C2.10705455,1.45676364 1.45454545,2.10927273 1.45454545,2.91130909 L1.45454545,2.91130909 L1.45454545,10.1840364 C1.45454545,10.9860727 2.10705455,11.6385818 2.90909091,11.6385818 L2.90909091,11.6385818 L15.7090909,11.6385818 C16.5111273,11.6385818 17.1636364,10.9860727 17.1636364,10.1840364 C17.1636364,9.78236364 17.4892364,9.45676364 17.8909091,9.45676364 C18.2925818,9.45676364 18.6181818,9.78236364 18.6181818,10.1840364 C18.6181818,11.7881091 17.3131636,13.0931273 15.7090909,13.0931273 L15.7090909,13.0931273 L10.0363636,13.0931273 L10.0363636,14.5432364 L12.5818182,14.5432364 C12.9834909,14.5432364 13.3090909,14.8688364 13.3090909,15.2705091 C13.3090909,15.6721818 12.9834909,15.9977818 12.5818182,15.9977818 L12.5818182,15.9977818 L6.03636364,15.9977818 C5.63469091,15.9977818 5.30909091,15.6721818 5.30909091,15.2705091 C5.30909091,14.8688364 5.63469091,14.5432364 6.03636364,14.5432364 L6.03636364,14.5432364 L8.58181818,14.5432364 L8.58181818,13.0931273 L2.90909091,13.0931273 C1.30501818,13.0931273 1.72306613e-13,11.7881091 1.72306613e-13,10.1840364 L1.72306613e-13,10.1840364 L1.72306613e-13,2.91130909 C1.72306613e-13,1.30723636 1.30501818,0.00221818182 2.90909091,0.00221818182 L2.90909091,0.00221818182 Z M11.9803675,4.21999861 C12.1611236,3.98361782 12.5124108,3.92920225 12.7649398,4.09840724 C13.017497,4.26761223 13.0756364,4.59637294 12.8948803,4.83272737 L12.8948803,4.83272737 L10.1118499,8.47113554 C10.1057656,8.47907115 10.099484,8.4868222 10.092949,8.49444144 C9.84027913,8.78874422 9.46457004,8.9719222 9.06210103,8.99702085 C9.03027083,8.99902453 8.99838429,9 8.96663859,9 C8.59718286,9 8.23809308,8.86667659 7.96905742,8.62697392 C7.96736733,8.62547116 7.96567723,8.62394204 7.9640153,8.62243929 L7.9640153,8.62243929 L6.16958044,6.98346039 C5.94733237,6.78043023 5.94296628,6.44724035 6.15986237,6.23920099 C6.37675846,6.03116164 6.73280606,6.02710156 6.95505413,6.23010537 L6.95505413,6.23010537 L8.74641864,7.86628966 C8.83478267,7.94377384 8.93494922,7.94996941 8.98722963,7.94672663 C9.03804529,7.94356293 9.1329162,7.92581987 9.20860448,7.84366924 L9.20860448,7.84366924 Z" id="Combined-Shape"></path>
                        </g>
                    </g>
                </g>
            </g>
        </g>
    </g>
</svg>